<svg xmlns="http://www.w3.org/2000/svg" viewBox="0 0 1024 257" fill="#fff" role="img" aria-label="Bank Islam">
  <g transform="translate(0 257) scale(.1 -.1)">
    <path d="M6195 2414 c-653 -38 -1191 -279 -1446 -650 -40 -59 -91 -171 -115 -254 -25 -90 -25 -289 0 -380 10 -36 18 -71 19 -77 0 -7 5 -13 10 -13 6 0 8 -3 4 -6 -7 -8 44 -112 86 -174 60 -89 142 -183 216 -247 273 -235 634 -393 1069 -470 147 -26 175 -28 447 -28 256 0 304 3 415 23 557 100 969 332 1165 657 19 32 35 64 35 69 -1 6 -9 -3 -18 -21 -54 -99 -199 -243 -339 -336 -200 -133 -504 -239 -808 -283 -179 -26 -505 -24 -690 4 -446 69 -835 241 -1086 479 -148 142 -237 279 -290 453 -30 97 -33 271 -6 370 111 410 576 736 1191 835 129 21 371 34 473 26 46 -3 91 -4 100 0 31 11 -321 29 -432 23z"/>
    <path d="M1516 1901 c-8 -12 -172 -417 -262 -646 -117 -297 -164 -411 -185 -444 -25 -42 -76 -71 -121 -71 -27 0 -38 -4 -38 -15 0 -13 27 -15 203 -13 126 2 202 7 202 13 0 6 -18 11 -40 13 -83 7 -84 40 -11 229 l53 138 175 3 c133 2 178 -1 185 -10 10 -13 89 -220 113 -297 13 -41 13 -44 -9 -60 -21 -16 -21 -19 -6 -24 9 -4 176 -7 371 -7 308 0 354 2 354 15 0 11 -11 15 -42 15 -62 0 -90 18 -104 66 -6 22 -15 139 -18 260 -3 120 -9 282 -12 358 l-6 139 63 -69 c128 -140 784 -794 802 -800 11 -3 23 -2 28 3 5 5 14 243 19 529 6 285 12 533 15 550 7 39 31 61 78 71 21 5 39 13 40 18 3 16 -405 13 -410 -2 -3 -9 5 -13 24 -13 15 0 45 -5 66 -11 63 -17 64 -26 74 -449 5 -206 8 -377 6 -379 -2 -3 -32 26 -66 64 -34 39 -92 99 -128 135 -61 61 -362 369 -578 593 -52 53 -100 97 -107 97 -7 0 -15 -8 -18 -17 -2 -10 -7 -227 -11 -483 -7 -569 -9 -605 -41 -636 -43 -44 -110 -22 -161 53 -18 27 -67 134 -109 238 -41 105 -107 267 -146 360 -39 94 -88 216 -109 273 -62 166 -89 222 -110 222 -10 0 -20 -4 -23 -9z m-6 -335 c0 -10 87 -254 125 -348 7 -17 -4 -18 -139 -18 l-146 0 29 78 c92 253 131 339 131 288z"/>
    <path d="M7933 1843 c-17 -38 -69 -167 -117 -288 -48 -121 -109 -274 -136 -340 -118 -291 -152 -371 -162 -392 -19 -39 -64 -74 -102 -80 l-37 -6 8 54 c11 72 10 153 -1 159 -5 3 -15 -15 -22 -40 -21 -70 -58 -100 -140 -110 -74 -10 -169 -4 -222 12 -61 19 -62 25 -62 533 0 520 -6 488 90 501 31 4 49 11 47 18 -5 16 -479 16 -484 0 -2 -7 16 -14 46 -18 37 -5 55 -13 70 -33 21 -25 21 -37 21 -502 0 -298 -4 -490 -10 -513 -12 -42 -34 -58 -79 -58 -19 0 -31 -5 -31 -14 0 -11 64 -14 343 -17 422 -5 802 2 802 16 0 6 -13 11 -30 13 -71 6 -75 9 -75 55 1 26 21 92 54 177 l53 135 181 3 c180 2 181 2 188 -20 3 -13 33 -90 65 -173 33 -82 57 -155 54 -162 -2 -7 -12 -13 -21 -13 -8 0 -14 -6 -12 -12 7 -20 658 -24 658 -4 0 9 -16 15 -51 18 -27 3 -56 11 -62 17 -19 19 -10 147 29 441 19 146 36 269 37 274 2 5 16 -20 32 -55 66 -150 103 -226 207 -434 119 -236 142 -275 163 -275 8 0 35 44 60 98 102 214 330 681 332 679 5 -6 93 -661 93 -697 0 -22 -4 -40 -10 -40 -5 0 -10 -6 -10 -14 0 -28 388 -36 398 -8 2 8 -8 12 -34 12 -54 0 -112 20 -127 44 -16 24 -33 97 -42 171 -18 162 -131 912 -141 939 -11 29 -38 13 -66 -39 -15 -28 -68 -138 -119 -245 -50 -107 -136 -287 -191 -400 l-100 -205 -94 190 c-51 105 -150 306 -218 448 -69 141 -132 260 -141 263 -9 4 -21 2 -26 -3 -5 -5 -45 -241 -89 -524 -87 -563 -93 -596 -119 -622 -36 -37 -102 5 -146 94 -30 59 -215 508 -290 704 -95 248 -145 355 -165 355 -12 0 -27 -21 -47 -67z m35 -320 c11 -32 38 -110 60 -173 23 -63 44 -123 47 -132 7 -17 -4 -18 -135 -18 -108 0 -141 3 -138 13 13 49 133 367 139 367 4 0 16 -26 27 -57z"/>
    <path d="M6215 1886 c-157 -39 -239 -138 -239 -288 0 -65 5 -86 32 -140 42 -87 82 -130 221 -242 68 -55 133 -116 150 -142 32 -50 47 -114 37 -167 -8 -42 -56 -100 -101 -121 -45 -22 -140 -22 -191 -1 -78 32 -114 86 -139 208 -3 15 -12 27 -19 27 -16 0 -30 -126 -24 -220 l3 -55 50 -25 c46 -23 60 -25 195 -25 136 0 148 2 202 27 68 31 143 105 172 168 30 65 29 205 -2 274 -39 87 -121 174 -277 294 -111 85 -148 135 -149 200 -1 65 18 103 67 136 38 25 49 27 118 24 65 -3 81 -7 112 -31 47 -36 68 -67 82 -125 7 -26 16 -47 21 -47 5 0 13 54 17 120 9 140 11 137 -87 154 -80 14 -187 13 -251 -3z"/>
    <path d="M136 1872 c-14 -14 -2 -20 49 -27 42 -5 59 -12 75 -32 19 -25 20 -39 20 -502 0 -467 -4 -540 -33 -558 -7 -4 -30 -10 -51 -13 -22 -3 -41 -11 -44 -17 -3 -10 43 -14 205 -15 293 -4 340 -1 413 22 254 82 331 354 151 530 -31 30 -81 68 -111 84 -30 16 -57 30 -59 32 -2 2 18 25 44 51 64 64 95 131 95 207 0 108 -50 175 -162 218 -48 19 -78 21 -320 23 -147 2 -269 0 -272 -3z m470 -80 c72 -39 114 -123 114 -226 0 -75 -27 -139 -67 -159 -40 -20 -97 -29 -138 -21 l-35 6 0 209 0 209 48 0 c26 -1 61 -9 78 -18z m40 -503 c117 -56 196 -232 170 -373 -8 -44 -59 -104 -103 -122 -64 -27 -201 -10 -225 29 -4 7 -8 122 -8 256 l0 244 62 -7 c34 -3 81 -15 104 -27z"/>
    <path d="M3405 1872 c-13 -13 -3 -22 25 -22 47 0 99 -26 110 -55 13 -35 13 -905 0 -976 -13 -65 -18 -71 -72 -78 -24 -3 -43 -10 -43 -16 0 -6 88 -11 238 -13 206 -2 237 0 237 13 0 11 -11 15 -39 15 -59 0 -87 14 -100 51 -7 20 -11 118 -11 268 1 212 2 234 16 216 54 -72 119 -151 176 -212 25 -26 60 -66 78 -88 69 -82 207 -213 250 -236 42 -22 56 -24 205 -24 98 0 161 4 163 10 2 6 -15 13 -37 17 -117 20 -214 100 -526 433 -153 164 -179 198 -166 222 10 19 229 236 341 337 69 63 138 100 208 111 26 4 41 12 39 18 -3 9 -60 12 -195 13 -199 0 -220 -5 -169 -39 22 -15 22 -15 3 -51 -17 -32 -262 -302 -350 -386 l-37 -35 3 223 c3 251 2 246 81 259 21 3 36 11 34 17 -4 11 -451 19 -462 8z"/>
    <path d="M5445 1872 c-13 -13 -2 -20 39 -26 85 -13 81 10 84 -485 5 -606 2 -621 -89 -621 -28 0 -39 -4 -36 -12 5 -16 486 -19 490 -3 1 6 -24 13 -57 16 -40 5 -65 13 -80 28 -21 21 -21 26 -24 504 -2 328 0 494 8 519 9 31 17 39 48 48 20 5 45 10 55 10 11 0 17 6 15 13 -4 9 -58 12 -226 13 -122 0 -224 -2 -227 -4z"/>
  </g>
</svg>
